<?xml version="1.0" encoding="UTF-8"?>
<svg id="Layer_1" data-name="Layer 1" xmlns="http://www.w3.org/2000/svg" viewBox="0 0 48 48">
  <defs>
    <style>
      .cls-1 {
        fill-rule: evenodd;
      }

      .cls-1, .cls-2 {
        fill: #fff;
        stroke-width: 0px;
      }
    </style>
  </defs>
  <g>
    <path class="cls-2" d="M27.22.38h-12.9c-2.16,0-3.91,1.76-3.91,3.91v34.83c0,2.16,1.76,3.91,3.91,3.91h1.95s0,0,0,0l1.86-1.86h-3.81c-1.13,0-2.05-.92-2.05-2.05V4.3c0-1.13.92-2.05,2.05-2.05h12.9c1.13,0,2.05.92,2.05,2.05v24.24c.32.17.63.36.93.58l.93-.93V4.3c0-2.16-1.76-3.91-3.91-3.91Z"/>
    <g>
      <path class="cls-1" d="M26.83,36.12s-.05,0-.07.02c.02-.01.05-.02.07-.02s.05,0,.08.02c-.02-.01-.05-.02-.08-.02ZM25.24,36.31s.02,0,.03.01c-.01,0-.02-.01-.03-.01ZM25.28,36.33l.15.1h0s-.15-.1-.15-.1ZM25.56,36.12s-.05,0-.07.02c.02-.01.05-.02.07-.02s.05,0,.07.02c-.02-.01-.05-.02-.07-.02ZM25.98,36.81l-.19-.13.19.13s0,0,.01.01c0,0,0,0-.01-.01ZM26.02,36.52s.02-.03.02-.04c0,.02-.01.03-.02.04ZM26.03,36.41s0,.05,0,.07c0-.02,0-.05,0-.07ZM24.73,36.84s.02.03.03.04c0-.02-.01-.03-.03-.04ZM24.7,36.81l-.18-.13.18.13s0,0,.01.01c0,0,0,0-.01-.01ZM24.28,36.12s-.05,0-.08.02c.02-.01.05-.02.08-.02s.05,0,.07.02c-.02-.01-.05-.02-.07-.02Z"/>
      <g>
        <path class="cls-2" d="M29.19,32.15s.05.06.08.09v-.16l-.08.08Z"/>
        <path class="cls-2" d="M29.27,32.08v.16s-.05-.06-.08-.09l.08-.08Z"/>
        <path class="cls-2" d="M29.19,32.15s.05.06.08.09v-.16l-.08.08Z"/>
      </g>
    </g>
    <g>
      <g>
        <path class="cls-2" d="M24.74,28.33v1.89s0,.03,0,.03c-.16.02-.32.06-.48.1-.49.12-.97.31-1.42.58-.02.01-.04.02-.06.04-.14.08-.28.17-.4.27l-1.06-1.05-.3-.3c.12-.1.25-.2.39-.29.15-.11.31-.21.48-.3.76-.45,1.57-.74,2.39-.88.16-.03.32-.05.48-.07Z"/>
        <path class="cls-2" d="M21.21,32.39c-.1.13-.19.27-.27.41-.28.46-.48.96-.61,1.48-.04.16-.07.32-.1.48h-1.5s-.43,0-.43,0c0-.03,0-.06,0-.08.02-.13.04-.26.06-.39.18-1.02.58-2,1.18-2.86.09-.13.19-.26.29-.39l1.34,1.34.02.02Z"/>
        <path class="cls-2" d="M21.21,38.77l-.02.02-1.03,1.04-.3.3c-.1-.12-.2-.25-.29-.39-.11-.15-.21-.31-.3-.48-.43-.74-.72-1.53-.87-2.33,0-.02,0-.04,0-.05-.03-.16-.05-.32-.07-.48h1.9s.03,0,.03,0c.02.16.06.32.1.48.12.49.31.97.58,1.43.01.02.02.04.04.06.08.14.17.28.27.4Z"/>
        <path class="cls-2" d="M24.74,42.4v.43c-.16-.02-.32-.04-.48-.07-1.02-.18-2-.59-2.86-1.18-.13-.09-.26-.19-.39-.29l.11-.11,1.24-1.25c.13.1.27.19.4.27.46.28.97.49,1.49.61.16.04.32.07.48.09v.27s0,1.23,0,1.23Z"/>
        <path class="cls-2" d="M30.1,41.29c-.12.1-.25.2-.39.29-.15.11-.31.21-.47.3-.76.44-1.57.74-2.38.88-.16.03-.32.05-.48.07v-1.65s0-.24,0-.24v-.02c.16-.02.32-.06.48-.1.49-.12.97-.31,1.43-.58.02-.01.04-.02.06-.04.14-.08.27-.17.4-.27l.02.02.22.22.82.82.3.3Z"/>
        <path class="cls-2" d="M32.8,36.4c-.02.16-.04.32-.07.48-.18,1.02-.59,2-1.19,2.86-.09.13-.19.26-.29.39l-.21-.21-.04-.04-1.11-1.11c.1-.13.19-.27.27-.41.28-.46.49-.97.61-1.49.04-.16.07-.32.1-.48h.25s1.39,0,1.39,0h.28Z"/>
        <path class="cls-2" d="M32.8,34.76h-1.67s-.25,0-.25,0c-.02-.16-.06-.32-.09-.48-.12-.49-.31-.97-.58-1.42-.01-.02-.02-.04-.04-.06-.08-.14-.17-.28-.27-.4l1.06-1.06.17-.17.13-.13c.1.12.2.25.29.39.11.15.21.31.3.47.45.76.74,1.57.88,2.39.03.16.05.32.07.48Z"/>
        <path class="cls-2" d="M30.1,29.88l-.26.26-.58.57-.51.5-.02.02c-.13-.1-.27-.19-.41-.27h0c-.46-.28-.96-.49-1.49-.61-.16-.04-.32-.07-.48-.09v-1.49s0-.42,0-.42c.16.02.32.04.48.07.85.15,1.67.46,2.41.9.15.09.3.19.45.29.13.09.26.19.39.29Z"/>
      </g>
      <path class="cls-2" d="M20.56,35.45c0,.09,0,.19,0,.28,0,.16.02.32.04.47h-.25s-.15,0-.15,0h-1.47s0-.03,0-.03c0-.04-.02-.07-.03-.11h-.31s.01.06.02.09v.05s-1.5,0-1.5,0v-.03s-.02-.07-.03-.11h-.19s.01.06.02.09v.05s-1.5,0-1.5,0v-.03s-.02-.07-.03-.11h-.17s.01.06.02.09v.05s-1.29,0-1.29,0c-.11,0-.21-.09-.21-.21v-.83c0-.11.09-.21.21-.21h1.31v.05s-.03.06-.03.09h.17s.01-.07.02-.11v-.03h1.52v.05s-.03.06-.03.09h.19s.02-.07.02-.11v-.03h1.52v.05s-.03.06-.03.09h.31s.02-.07.03-.11v-.03s1.48,0,1.48,0h.15s.25,0,.25,0c0,0,0,0,0,0,0,.03,0,.06-.01.1-.01.12-.02.25-.03.37,0,0,0,0,0,.01Z"/>
      <g>
        <g>
          <path class="cls-2" d="M26.13,42.73h.05s0,1.5,0,1.5h-.03s-.07.02-.11.03v.19s.06-.01.09-.02h.05s0,1.5,0,1.5h-.03s-.07.03-.11.03v.17s.06-.01.09-.02h.05s0,1.29,0,1.29c0,.11-.09.21-.21.21h-.83c-.11,0-.21-.09-.21-.21v-1.31h.05s.06.03.09.03v-.17s-.07-.02-.11-.02h-.03v-1.52h.05s.06.03.09.03v-.19s-.07-.02-.11-.02h-.03v-1.52h.05s.06.03.09.03v-.31s-.07-.01-.11-.02h-.03s0-1.24,0-1.24v-.24s0-.15,0-.15v-.25c.16.02.32.03.48.04.1,0,.2,0,.29,0,.16,0,.32-.02.47-.04v.25s0,.15,0,.15v.24s0,1.23,0,1.23h-.03s-.07.02-.11.03v.31s.06-.01.09-.02Z"/>
          <path class="cls-2" d="M26.04,25.03v.17s.07.02.11.02h.03v1.52h-.05s-.06-.03-.09-.03v.19s.07.02.11.02h.03v1.52h-.05s-.06-.03-.09-.03v.31s.07.01.11.02h.03s0,1.47,0,1.47v.15s0,.25,0,.25c-.16-.02-.32-.03-.47-.04-.1,0-.2,0-.29,0-.16,0-.32.02-.48.04v-.25s0-.15,0-.15v-1.47s.03,0,.03,0c.03,0,.07-.02.11-.02v-.31s-.06.01-.09.02h-.05s0-1.5,0-1.5h.03s.07-.02.11-.03v-.19s-.06.01-.09.02h-.05s0-1.5,0-1.5h.03s.07-.02.11-.03v-.17s-.06.01-.09.02h-.05s0-1.29,0-1.29c0-.11.09-.21.21-.21h.83c.11,0,.21.09.21.21v1.31h-.05s-.06-.03-.09-.03Z"/>
        </g>
        <g>
          <path class="cls-2" d="M22.49,39.53l-.17.17-.11.11-1.03,1.04-.03-.02s-.06-.04-.09-.06l-.22.22s.05.03.08.05l.04.03-.09.09-.48.48-.5.5-.03-.02s-.06-.04-.09-.06l-.14.14s.05.03.08.05l.04.02-.77.77-.3.3-.03-.02s-.06-.04-.09-.06l-.12.12s.05.03.08.05l.04.02-.92.93c-.08.08-.21.08-.29,0l-.59-.59c-.08-.08-.08-.21,0-.29l.47-.47.46-.46.03.04s.03.05.05.07l.12-.12s-.04-.06-.06-.09l-.02-.03,1.07-1.07.03.04s.03.05.05.08l.14-.14s-.04-.06-.06-.09l-.02-.03.08-.08.41-.41.48-.48.09-.09.03.04s.03.05.05.07l.22-.22s-.04-.06-.06-.09l-.02-.03,1.04-1.04.11-.11.17-.17c.1.13.2.25.31.36.07.07.13.14.21.21,0,0,.02.02.03.02.02.02.04.04.07.06,0,0,.01,0,.02.01.02.01.03.03.05.04.03.03.07.06.11.09.03.03.07.06.1.08Z"/>
          <g>
            <path class="cls-2" d="M34.36,27.66l-.93.92-.03-.04s-.03-.05-.05-.07l-.12.12s.04.06.06.09l.02.03-1.07,1.07-.03-.04s-.03-.05-.05-.07l-.14.14s.04.06.06.09l.02.03-.5.5-.48.48-.09.09-.02-.04-.05-.07-.22.22s.04.06.06.09v.03s-1.02,1.04-1.02,1.04l-.11.11-.17.17c-.07-.1-.15-.19-.23-.28v-.16l-.08.08c-.07-.07-.14-.14-.21-.21-.12-.11-.24-.21-.36-.31l.28-.28.37-.36.67-.67.03.02s.06.04.09.06l.22-.22s-.05-.03-.08-.05l-.04-.03.58-.58.4-.4.1-.1.03.02s.06.04.09.06l.14-.14s-.05-.03-.08-.05l-.04-.03,1.07-1.07.03.02s.06.04.09.06l.12-.12s-.05-.03-.07-.05l-.05-.02.93-.93c.08-.08.21-.08.29,0l.59.59c.08.08.08.21,0,.29Z"/>
            <path class="cls-2" d="M29.27,32.08v.16s-.05-.06-.08-.09l.08-.08Z"/>
          </g>
        </g>
        <path class="cls-2" d="M37.59,35.17v.83c0,.11-.09.21-.21.21h-1.31v-.05s.03-.06.03-.09h-.17s-.02.07-.02.11v.03h-1.52v-.05s.03-.06.03-.09h-.19s-.02.07-.03.11v.03h-1.52v-.05s.03-.06.03-.09h-.31s-.01.07-.02.11v.03s-1.25,0-1.25,0h-.22s-.15,0-.15,0h-.25c.02-.16.03-.32.04-.48,0-.1,0-.2,0-.29,0-.16-.02-.32-.04-.48h.25s.15,0,.15,0h.22s1.24,0,1.24,0v.03s.02.07.03.11h.31s-.01-.06-.02-.09v-.05s1.5,0,1.5,0v.03s.02.07.03.11h.19s-.01-.06-.02-.09v-.05s1.5,0,1.5,0v.03s.03.07.03.11h.17s-.01-.06-.02-.09v-.05s1.29,0,1.29,0c.11,0,.21.09.21.21Z"/>
        <g>
          <path class="cls-2" d="M22.49,31.64c-.13.1-.25.2-.36.31-.07.07-.14.14-.21.21-.11.12-.21.24-.31.36l-.18-.18-.11-.11-1.04-1.03.02-.03s.04-.06.06-.09l-.22-.22s-.03.05-.05.07l-.03.04-.09-.09-.48-.48-.5-.49.02-.03s.04-.06.06-.09l-.14-.14s-.03.05-.05.07l-.03.04-1.07-1.07.02-.03s.04-.06.06-.09l-.12-.12s-.03.05-.05.07l-.03.04-.92-.92c-.08-.08-.08-.21,0-.29l.59-.59c.08-.08.21-.08.29,0l.92.93-.04.02s-.05.03-.08.05l.12.12s.06-.04.09-.06l.03-.02,1.07,1.07-.04.03s-.05.03-.08.05l.14.14s.06-.04.09-.06l.03-.02.5.5.48.48.1.1-.04.03s-.05.03-.08.05l.22.22s.06-.04.09-.06l.03-.02,1.04,1.04.11.11.17.17Z"/>
          <path class="cls-2" d="M34.36,43.8l-.59.59c-.08.08-.21.08-.29,0l-.93-.93.04-.02s.05-.03.08-.05l-.12-.12s-.06.04-.09.06l-.03.02-1.07-1.07.04-.02s.05-.03.08-.05l-.14-.14s-.06.04-.09.06l-.02.02-.5-.5-.29-.29-.28-.28.04-.03s.05-.03.08-.05l-.22-.22s-.06.04-.09.06l-.03.02-.86-.86-.18-.18-.11-.11-.17-.17c.13-.1.25-.2.36-.31.07-.07.14-.14.21-.21.03-.03.05-.06.08-.08.08-.09.16-.18.23-.28l.17.18.11.11,1.03,1.04-.02.03s-.04.06-.06.09l.21.21h.01s.03-.04.05-.06l.03-.04.09.09.48.48.5.5-.02.03s-.04.06-.06.09l.14.14s.03-.05.05-.08l.03-.04,1.07,1.07v.03s-.05.06-.07.09l.12.12s.03-.05.05-.07l.03-.04.92.93c.08.08.08.21,0,.29Z"/>
        </g>
      </g>
      <g>
        <path class="cls-2" d="M29.93,34.28c-.09-.3-.21-.59-.37-.88-.02-.04-.05-.08-.07-.12-.07-.12-.15-.24-.23-.35-.41-.58-.94-1.03-1.53-1.36-.28-.15-.58-.27-.88-.36-.83-.25-1.73-.25-2.59,0-.3.09-.59.21-.88.36-.04.02-.09.05-.13.07-.75.44-1.32,1.05-1.71,1.76-.15.28-.27.57-.36.88-.07.24-.12.49-.15.74,0,.03,0,.06-.01.09-.01.12-.02.23-.02.35,0,.32.02.65.08.97.03.15.06.3.11.45.09.3.21.6.37.89.02.04.05.09.07.13.44.75,1.05,1.32,1.76,1.71h0c.28.15.58.27.88.36.83.25,1.73.26,2.59,0,.3-.09.6-.21.89-.37.04-.02.08-.05.12-.07.57-.34,1.04-.78,1.41-1.28.11-.15.21-.32.3-.48h0c.15-.28.27-.58.36-.88.25-.83.25-1.73,0-2.59ZM28.29,37.97c-.25.29-.55.54-.9.74-.02.01-.04.02-.06.03-1.14.64-2.48.6-3.55,0-.35-.2-.68-.46-.95-.77-.15-.17-.28-.36-.4-.56-1.01-1.73-.43-3.95,1.3-4.96,1.73-1.01,3.95-.43,4.96,1.3.81,1.38.6,3.08-.4,4.22Z"/>
        <path class="cls-2" d="M27.49,35.21h-.3v-.53c0-.21-.04-.42-.12-.61-.08-.19-.2-.37-.34-.51h0c-.31-.31-.71-.47-1.11-.47s-.81.16-1.12.47c-.3.3-.47.7-.47,1.12v.53h-.38c-.07,0-.12.06-.13.12v2.61c0,.07.06.12.13.12h3.86c.07,0,.12-.06.12-.12v-2.61c0-.07-.06-.12-.12-.12ZM24.63,34.67c0-.25.1-.5.28-.68.19-.19.44-.29.69-.29s.49.09.68.28c.18.18.28.43.28.68v.54h-1.94v-.54ZM24.76,36.94s0,0,0,.01c0,0,0,.02-.01.03,0,0,0,0,0,.01,0,0,0,0,0,0-.04.06-.12.08-.18.04l-.14-.1v.17c0,.07-.06.13-.13.13-.04,0-.07-.02-.09-.04-.02-.02-.04-.06-.04-.09v-.17l-.14.1s-.01,0-.02,0c-.05.02-.11.01-.15-.02,0,0-.02-.02-.02-.03,0,0,0-.01,0-.02-.02-.03-.02-.07,0-.11,0-.02.01-.03.03-.04,0,0,.02-.02.03-.02l.18-.12-.18-.13s-.07-.08-.06-.13c0-.02,0-.04.02-.05,0,0,0,0,.01-.01,0,0,0,0,.01-.01.04-.04.11-.05.16-.01l.14.1v-.17s.02-.09.06-.11c.02-.01.05-.02.08-.02s.05,0,.07.02c.04.02.06.06.06.11v.17l.14-.1c.06-.04.14-.02.18.04.04.06.02.14-.04.18l-.18.13.18.13s0,0,.01.01c0,0,0,0,.01.01.01.01.02.03.03.04,0,.02.01.04,0,.07ZM26.02,37s0,0,0,0c-.04.06-.12.08-.18.04l-.14-.1v.17c0,.07-.06.13-.13.13-.04,0-.07-.02-.09-.04,0,0,0,0,0,0-.02-.02-.03-.05-.03-.08v-.17l-.14.1s-.02.01-.04.02c0,0-.01,0-.02,0-.05,0-.1-.01-.13-.06-.04-.06-.02-.15.04-.19l.19-.12-.19-.13c-.05-.03-.07-.09-.06-.14,0-.01,0-.02.01-.03,0,0,0,0,0,0,0,0,0,0,0,0,0,0,0,0,0,0,0,0,0,0,.01-.01,0,0,0,0,.01-.01.03-.03.08-.04.12-.03.01,0,.02,0,.03.01,0,0,0,0,0,0l.15.1v-.17h0s.02-.08.06-.11c.02-.01.05-.02.07-.02s.05,0,.07.02c.04.02.06.06.06.11v.17l.14-.1c.05-.03.12-.03.16.01,0,0,0,0,.01.01,0,0,0,0,.01.01,0,.01.01.02.02.04,0,.02,0,.05,0,.07,0,.02-.01.03-.02.04,0,.01-.02.02-.04.03l-.19.13.19.13s0,0,.01.01c0,0,0,0,.01.01,0,0,.01.02.02.03.01.02.02.05.01.08,0,.02,0,.04-.02.05ZM27.3,36.99s-.08.07-.13.06c-.01,0-.02,0-.04-.01,0,0-.01,0-.02,0l-.14-.1v.17s-.02.07-.04.09c0,0,0,0,0,0-.02.02-.05.03-.08.03s-.06-.01-.08-.03c0,0,0,0,0,0-.02-.02-.04-.06-.04-.09v-.17l-.14.1s-.05.02-.08.02c-.03,0-.07-.01-.09-.04,0,0,0,0-.01-.01,0,0,0,0,0,0s0,0,0,0c-.04-.06-.03-.14.02-.18,0,0,0,0,0,0l.18-.12-.18-.13c-.06-.04-.08-.12-.04-.18.04-.06.12-.08.18-.04l.14.1v-.17h0s.02-.08.06-.11c.02-.01.05-.02.07-.02s.05,0,.08.02c.04.02.06.06.06.11v.17l.14-.1c.06-.04.14-.02.18.04.04.06.02.14-.04.18l-.18.12.19.13c.06.04.08.12.04.19Z"/>
      </g>
    </g>
  </g>
  <rect class="cls-2" x="31.07" y="11.94" width=".37" height="3.37" rx=".18" ry=".18"/>
  <rect class="cls-2" x="31.07" y="17.28" width=".37" height="6.12" rx=".18" ry=".18"/>
</svg>