<?xml version="1.0" encoding="UTF-8"?>
<svg id="Layer_1" data-name="Layer 1" xmlns="http://www.w3.org/2000/svg" viewBox="0 0 291.17 74.76">
  <defs>
    <style>
      .cls-1 {
        fill-rule: evenodd;
      }

      .cls-1, .cls-2 {
        fill: #fff;
        stroke-width: 0px;
      }
    </style>
  </defs>
  <g>
    <path class="cls-2" d="M57.35,61.16c-1.1,0-1.93-.56-2.49-1.69l-8.9-21.91h5.29l7.21,18.64,6.71-16.92c.58-1.15,1.42-1.72,2.49-1.72h3.24l-9.71,23.59h-3.84Z"/>
    <path class="cls-2" d="M94.09,61.16h-5.29l-7.21-18.81-7.35,18.81h-5.09l9.71-23.59h3.84c1.12,0,1.95.56,2.49,1.68l8.9,21.91Z"/>
    <path class="cls-2" d="M98.16,58.67c-1.87-1.91-2.8-4.47-2.8-7.68v-13.38h4.89v13.38c0,1.82.51,3.28,1.52,4.38,1.01,1.1,2.37,1.65,4.08,1.65s3.08-.56,4.06-1.69c.98-1.12,1.47-2.57,1.47-4.35v-13.38h3.2c.47,0,.87.16,1.2.49s.49.72.49,1.2v11.7c0,3.3-.96,5.89-2.88,7.75-1.92,1.87-4.44,2.8-7.57,2.8s-5.79-.96-7.65-2.87Z"/>
    <path class="cls-2" d="M137.77,61.16h-14.97v-23.59h3.2c.47,0,.87.16,1.2.49.33.33.49.72.49,1.2v17.59h12.91l-1.28,3.24c-.36.72-.88,1.08-1.55,1.08Z"/>
    <path class="cls-2" d="M143.26,61.16v-19.28h-7.95v-4.31h21.87l-1.28,3.24c-.36.72-.88,1.08-1.55,1.08h-6.2v19.28h-4.89Z"/>
    <path class="cls-2" d="M166.45,61.16h-4.89v-12.94h11.39c.99-.02,1.8-.31,2.44-.86.64-.55.96-1.33.96-2.34s-.32-1.8-.96-2.36c-.64-.56-1.45-.85-2.44-.88h-9.71c-.47,0-.87-.16-1.2-.49-.33-.33-.49-.72-.49-1.2v-2.53h11.83c2.29,0,4.18.69,5.68,2.06,1.49,1.37,2.24,3.16,2.24,5.36s-.74,3.85-2.22,5.22c-1.48,1.37-3.38,2.06-5.7,2.06h-6.94v8.9Z"/>
    <path class="cls-2" d="M190.48,61.16h-4.89v-23.59h4.89v23.59ZM206.22,61.16h-4.89v-9.64h-9.17l1.31-3.4c.36-.72.89-1.08,1.58-1.08h5.43c.22,0,.42-.08.59-.25.17-.17.25-.36.25-.59v-8.63h3.2c.47,0,.87.16,1.2.49.33.33.49.72.49,1.2v21.91Z"/>
    <path class="cls-2" d="M216.92,59.98c-1.9-1.03-3.43-2.47-4.58-4.3-1.16-1.83-1.74-3.94-1.74-6.32,0-2.22.54-4.26,1.63-6.1,1.09-1.84,2.58-3.31,4.47-4.42,1.89-1.1,4.01-1.65,6.37-1.65s4.32.52,6.22,1.57c1.9,1.04,3.42,2.48,4.57,4.3,1.15,1.82,1.72,3.92,1.72,6.3,0,2.22-.55,4.26-1.63,6.1-1.09,1.84-2.58,3.31-4.47,4.42-1.89,1.1-4.02,1.65-6.4,1.65-2.2,0-4.25-.52-6.15-1.55ZM228.45,54.84c1.4-1.47,2.11-3.3,2.11-5.48s-.7-4.01-2.11-5.48c-1.4-1.47-3.2-2.21-5.38-2.21s-3.88.73-5.31,2.19c-1.43,1.46-2.14,3.29-2.14,5.49s.71,4.01,2.14,5.48c1.43,1.47,3.2,2.21,5.31,2.21s3.97-.74,5.38-2.21Z"/>
    <path class="cls-2" d="M261.09,61.16h-4.45c-.83,0-1.55-.35-2.16-1.04l-9.74-14.73v15.77h-4.62v-23.59h3.34c.81,0,1.52.35,2.12,1.04,5.15,7.53,10.31,15.04,15.5,22.55ZM261.09,58.23l-4.58-6.37v-14.29h4.58v20.66Z"/>
    <path class="cls-2" d="M283.74,41.82h-16.99v-4.25h19.82l-1.28,3.17c-.36.72-.88,1.08-1.55,1.08ZM279.22,51.42h-12.47v-4.11h15.23l-1.21,3.03c-.36.72-.88,1.08-1.55,1.08ZM283.84,61.16h-17.09v-4.25h19.82l-1.15,3.13c-.34.74-.87,1.11-1.58,1.11Z"/>
  </g>
  <g>
    <g>
      <path class="cls-2" d="M27.46,3.02H8.69c-3.14,0-5.69,2.55-5.69,5.69v50.68c0,3.14,2.55,5.69,5.69,5.69h2.83s0,0,.01-.01l2.7-2.7h-5.55c-1.64,0-2.98-1.34-2.98-2.98V8.71c0-1.64,1.34-2.98,2.98-2.98h18.77c1.64,0,2.98,1.34,2.98,2.98v35.26c.47.25.92.53,1.36.84l1.36-1.36V8.71c0-3.14-2.55-5.69-5.69-5.69Z"/>
      <g>
        <path class="cls-1" d="M26.89,55.02s-.08.01-.11.03c.03-.02.07-.03.11-.03s.08.01.11.03c-.03-.02-.07-.03-.11-.03ZM24.58,55.29s.03.01.05.02c-.02,0-.03-.02-.05-.02ZM24.63,55.32l.21.14h0s-.21-.14-.21-.14ZM25.04,55.02s-.08.01-.11.03c.03-.02.07-.03.11-.03s.08.01.11.03c-.03-.02-.07-.03-.11-.03ZM25.66,56.02l-.27-.19.27.19s.01,0,.02.02c0,0-.01-.01-.02-.02ZM25.71,55.6s.02-.04.03-.06c0,.02-.02.04-.03.06ZM25.74,55.43s.01.07,0,.1c0-.03,0-.07,0-.1ZM23.84,56.06s.03.04.04.06c0-.02-.02-.04-.04-.06ZM23.8,56.02l-.27-.19.27.19s.01,0,.02.02c0,0-.01-.01-.02-.02ZM23.18,55.02s-.08.01-.11.03c.03-.02.07-.03.11-.03s.08.01.11.03c-.03-.02-.07-.03-.11-.03Z"/>
        <g>
          <path class="cls-2" d="M30.33,49.24s.08.08.11.12v-.24l-.11.11Z"/>
          <path class="cls-2" d="M30.44,49.13v.24s-.07-.08-.11-.12l.11-.11Z"/>
          <path class="cls-2" d="M30.33,49.24s.08.08.11.12v-.24l-.11.11Z"/>
        </g>
      </g>
      <g>
        <g>
          <path class="cls-2" d="M23.85,43.68v2.75s0,.04,0,.04c-.23.04-.46.08-.69.14-.71.18-1.41.46-2.07.85-.03.02-.06.03-.09.05-.2.12-.4.25-.59.39l-1.54-1.53-.44-.44c.18-.15.37-.29.56-.42.22-.16.45-.3.69-.44,1.11-.65,2.28-1.07,3.48-1.29.23-.04.46-.08.69-.1Z"/>
          <path class="cls-2" d="M18.72,49.59c-.14.19-.27.39-.39.59-.41.67-.71,1.4-.89,2.16-.06.23-.1.46-.14.69h-2.18s-.62,0-.62,0c0-.04,0-.08.01-.12.02-.19.05-.38.09-.57.27-1.49.85-2.91,1.72-4.16.13-.19.27-.38.42-.56l1.95,1.95.03.03Z"/>
          <path class="cls-2" d="M18.72,58.87l-.03.03-1.51,1.51-.44.44c-.14-.18-.28-.37-.42-.56-.16-.22-.3-.46-.44-.69-.63-1.08-1.05-2.23-1.27-3.39,0-.03,0-.05-.01-.08-.04-.23-.08-.46-.1-.69h2.76s.04,0,.04,0c.04.23.08.46.14.69.18.71.46,1.41.85,2.08.02.03.03.06.05.09.12.2.25.4.39.59Z"/>
          <path class="cls-2" d="M23.85,64.15v.62c-.23-.03-.46-.06-.69-.1-1.48-.27-2.91-.85-4.16-1.72-.19-.13-.38-.27-.56-.42l.16-.16,1.81-1.81c.19.14.39.27.59.39.67.41,1.4.71,2.16.89.23.06.46.1.69.14v.39s0,1.79,0,1.79Z"/>
          <path class="cls-2" d="M31.65,62.53c-.18.15-.37.29-.56.42-.22.15-.45.3-.69.44-1.1.65-2.28,1.07-3.47,1.28-.23.04-.46.08-.69.1v-2.41s0-.35,0-.35v-.04c.23-.04.46-.08.69-.14.71-.18,1.41-.46,2.07-.84.03-.02.06-.04.09-.05.2-.12.4-.25.59-.39l.03.03.32.32,1.19,1.19.44.44Z"/>
          <path class="cls-2" d="M35.58,55.43c-.03.23-.06.46-.1.69-.27,1.48-.85,2.91-1.73,4.16-.13.19-.27.38-.42.56l-.3-.3-.06-.06-1.61-1.62c.14-.19.27-.39.39-.59.41-.67.71-1.4.89-2.16.06-.23.1-.46.14-.69h.36s2.03,0,2.03,0h.4Z"/>
          <path class="cls-2" d="M35.59,53.04h-2.43s-.36,0-.36,0c-.04-.23-.08-.46-.14-.69-.18-.71-.46-1.41-.84-2.07-.02-.03-.03-.06-.05-.09-.12-.2-.25-.4-.39-.59l1.54-1.54.25-.25.18-.18c.15.18.29.37.42.56.15.22.3.45.44.69.65,1.11,1.07,2.28,1.29,3.48.04.23.08.46.1.69Z"/>
          <path class="cls-2" d="M31.66,45.93l-.37.37-.84.83-.74.73-.03.03c-.19-.14-.39-.27-.59-.39h0c-.67-.4-1.4-.71-2.16-.89-.23-.06-.46-.1-.69-.14v-2.17s0-.62,0-.62c.23.03.46.06.69.1,1.23.22,2.42.66,3.51,1.31.22.13.44.27.65.42.19.13.38.27.56.42Z"/>
        </g>
        <path class="cls-2" d="M17.78,54.03c0,.14,0,.27,0,.41,0,.23.02.46.05.69h-.36s-.22,0-.22,0h-2.13s-.01-.04-.01-.04c-.01-.05-.02-.1-.04-.15h-.46s.02.08.03.13l.02.07h-2.2v-.04c-.02-.05-.03-.1-.05-.15h-.28s.02.08.03.13l.02.07h-2.2v-.04c-.02-.05-.04-.1-.05-.15h-.25s.02.08.03.13l.02.07h-1.9c-.17,0-.3-.13-.3-.3v-1.21c0-.17.13-.3.3-.3h1.9l-.02.07s-.02.08-.03.13h.25c0-.05.02-.1.03-.16v-.04h2.21l-.02.07s-.02.08-.03.13h.28c.01-.05.02-.1.04-.16v-.04h2.21l-.02.07s-.02.08-.03.13h.46c.01-.05.02-.1.04-.16v-.04s2.15,0,2.15,0h.22s.36,0,.36,0c0,0,0,0,0,.01,0,.05-.01.09-.02.14-.02.18-.03.36-.04.54,0,0,0,.01,0,.02Z"/>
        <g>
          <g>
            <path class="cls-2" d="M25.88,64.63l.07-.02v2.2h-.04c-.05.02-.1.04-.16.05v.28s.08-.02.13-.03l.07-.02v2.2h-.04c-.05.02-.1.04-.16.05v.24s.08-.02.13-.03l.07-.02v1.9c0,.16-.13.3-.3.3h-1.21c-.17,0-.3-.14-.3-.3v-1.9l.07.02s.08.02.13.03v-.24s-.1-.02-.15-.04h-.04v-2.22l.07.02s.08.02.13.03v-.28s-.1-.02-.15-.04h-.04v-2.21l.07.02s.08.02.13.03v-.46s-.1-.02-.15-.03h-.04s0-1.8,0-1.8v-.35s0-.22,0-.22v-.36c.23.03.46.05.69.05.14,0,.29,0,.43,0,.23,0,.46-.02.69-.05v.36s0,.22,0,.22v.35s0,1.79,0,1.79h-.04c-.05.02-.1.04-.16.05v.46s.08-.02.13-.03Z"/>
            <path class="cls-2" d="M25.75,38.87v.25c.05,0,.1.02.16.04h.04v2.22l-.07-.02s-.08-.02-.13-.03v.28c.05.01.1.02.16.04h.04v2.21l-.07-.02s-.08-.02-.13-.03v.46c.05,0,.1.02.16.03h.04s0,2.15,0,2.15v.22s0,.36,0,.36c-.23-.03-.46-.05-.69-.05-.14,0-.28,0-.43,0-.23,0-.46.02-.7.06v-.36s0-.22,0-.22v-2.13s.05-.01.05-.01c.05-.01.1-.02.15-.03v-.46s-.08.02-.13.03l-.07.02v-2.2h.04s.1-.04.15-.05v-.28s-.08.02-.13.03l-.07.02v-2.21h.04s.1-.04.15-.05v-.25s-.08.02-.13.03l-.07.02v-1.9c0-.16.13-.3.3-.3h1.21c.17,0,.3.14.3.3v1.9l-.07-.02s-.08-.02-.13-.03Z"/>
          </g>
          <g>
            <path class="cls-2" d="M20.58,59.97l-.25.25-.16.16-1.5,1.51-.04-.02s-.09-.06-.13-.08l-.32.32s.07.05.11.07l.06.04-.14.14-.7.7-.72.72-.04-.02s-.09-.06-.13-.08l-.2.2s.07.05.11.07l.06.04-1.11,1.12-.44.44-.04-.02s-.09-.06-.13-.08l-.17.17s.07.05.11.07l.06.04-1.34,1.35c-.12.12-.31.12-.43,0l-.86-.86c-.12-.12-.12-.31,0-.42l.68-.68.67-.67.04.06s.04.07.07.11l.17-.17s-.06-.09-.08-.13l-.02-.04,1.56-1.56.04.06s.05.07.07.11l.2-.2s-.06-.09-.08-.14l-.02-.04.12-.12.6-.6.7-.7.14-.14.04.06s.05.07.07.11l.32-.32s-.06-.09-.08-.13l-.02-.04,1.51-1.51.16-.16.25-.25c.14.19.29.36.45.53.1.1.2.2.3.3.01.01.02.02.04.03.03.03.06.06.1.09,0,0,.02.01.02.02.02.02.04.04.07.06.05.04.1.09.15.13.05.04.1.08.15.12Z"/>
            <g>
              <path class="cls-2" d="M37.86,42.7l-1.35,1.35-.04-.06s-.04-.07-.07-.11l-.17.17s.06.09.08.13l.02.04-1.56,1.56-.04-.06s-.05-.07-.07-.11l-.2.2s.06.09.08.14l.02.04-.72.72-.7.7-.14.14-.04-.06-.07-.11-.32.32s.06.09.08.13l.02.04-1.51,1.51-.16.16-.25.25c-.11-.14-.22-.27-.34-.4v-.24l-.11.11c-.1-.1-.2-.21-.3-.3-.17-.16-.35-.31-.53-.45l.41-.41.53-.53.98-.97.04.02s.09.06.13.08l.32-.32s-.07-.05-.11-.07l-.06-.04.84-.84.58-.58.14-.14.04.02s.09.06.13.08l.2-.2s-.07-.05-.11-.07l-.06-.04,1.56-1.56.04.02s.09.06.13.08l.17-.17s-.07-.05-.11-.07l-.07-.04,1.35-1.35c.12-.12.31-.12.43,0l.86.86c.12.12.12.31,0,.42Z"/>
              <path class="cls-2" d="M30.44,49.13v.24s-.07-.08-.11-.12l.11-.11Z"/>
            </g>
          </g>
          <path class="cls-2" d="M42.55,53.63v1.21c0,.16-.13.3-.3.3h-1.9l.02-.07s.02-.08.03-.13h-.25c0,.05-.02.1-.03.15v.04h-2.22l.02-.07s.02-.08.03-.13h-.28c-.01.05-.02.1-.04.15v.04h-2.21l.02-.07s.02-.08.03-.13h-.46c0,.05-.02.1-.03.15v.04s-1.82,0-1.82,0h-.32s-.22,0-.22,0h-.36c.03-.23.05-.46.05-.69,0-.14,0-.29,0-.43,0-.23-.02-.46-.06-.69h.36s.22,0,.22,0h.32s1.81,0,1.81,0v.04c.02.05.04.1.05.16h.46s-.02-.08-.03-.13l-.02-.07h2.2v.04c.02.05.03.1.05.16h.28s-.02-.08-.03-.13l-.02-.07h2.2v.04c.02.05.04.1.05.16h.25s-.02-.08-.03-.13l-.02-.07h1.9c.17,0,.3.13.3.3Z"/>
          <g>
            <path class="cls-2" d="M20.59,48.49c-.18.14-.36.29-.53.45-.1.1-.21.2-.3.3-.16.17-.31.35-.45.53l-.26-.26-.15-.15-1.51-1.51.02-.04s.06-.09.08-.13l-.32-.32s-.05.07-.07.11l-.04.06-.14-.14-.7-.7-.72-.72.02-.04s.06-.09.08-.14l-.2-.2s-.05.07-.07.11l-.04.06-1.56-1.56.02-.04s.06-.09.08-.13l-.17-.17s-.05.07-.07.11l-.04.06-1.35-1.35c-.12-.12-.12-.31,0-.42l.86-.86c.12-.12.31-.12.42,0l1.34,1.35-.06.04s-.07.05-.11.07l.17.17s.09-.06.13-.08l.04-.02,1.56,1.56-.06.04s-.07.04-.11.07l.2.2s.09-.06.14-.08l.04-.02.72.72.7.7.14.14-.06.04s-.07.04-.11.07l.32.32s.09-.06.13-.08l.04-.02,1.51,1.51.16.16.25.25Z"/>
            <path class="cls-2" d="M37.85,66.19l-.86.86c-.12.12-.31.12-.42,0l-1.35-1.35.06-.04s.07-.05.11-.07l-.17-.17s-.09.06-.13.08l-.04.02-1.56-1.56.06-.04s.07-.05.11-.07l-.2-.2s-.09.06-.14.08l-.04.02-.72-.72-.43-.43-.41-.41.06-.04s.07-.04.11-.07l-.32-.32s-.09.06-.13.08l-.04.02-1.25-1.25-.26-.26-.16-.16-.25-.25c.18-.14.36-.29.53-.45.1-.1.21-.2.3-.3.04-.04.08-.08.11-.12.12-.13.23-.27.34-.41l.25.26.16.16,1.5,1.51-.02.04s-.05.09-.08.13l.31.31.02.02s.05-.07.07-.11l.04-.06.14.14.7.7.72.72-.02.04s-.06.09-.08.14l.2.2s.05-.07.07-.11l.04-.06,1.56,1.56-.02.04s-.06.09-.09.13l.17.17s.05-.07.07-.11l.04-.06,1.34,1.35c.12.12.12.31,0,.42Z"/>
          </g>
        </g>
        <g>
          <path class="cls-2" d="M31.41,52.34c-.13-.44-.31-.86-.53-1.28-.03-.06-.07-.12-.1-.18-.1-.18-.21-.35-.33-.51-.6-.84-1.37-1.5-2.23-1.97-.41-.22-.84-.4-1.29-.53-1.21-.36-2.52-.37-3.77,0-.43.13-.86.31-1.27.53-.06.04-.13.07-.19.11-1.08.64-1.92,1.53-2.48,2.56-.22.41-.4.84-.53,1.28-.1.35-.18.71-.22,1.07,0,.04-.01.08-.02.13-.02.17-.03.34-.03.51-.01.47.02.94.11,1.41.04.22.09.43.16.65.13.44.31.87.53,1.29.03.06.07.12.11.19.64,1.08,1.53,1.92,2.56,2.48h0c.41.22.84.4,1.28.53,1.21.36,2.52.38,3.77,0,.44-.13.88-.31,1.29-.54.06-.03.12-.07.18-.1.83-.49,1.52-1.13,2.05-1.86.16-.23.31-.46.44-.7h0c.22-.41.4-.84.53-1.28.36-1.21.37-2.52,0-3.77ZM29.01,57.71c-.36.42-.8.78-1.31,1.08-.03.02-.06.03-.08.05-1.66.93-3.62.87-5.17,0-.51-.29-.98-.66-1.38-1.12-.22-.25-.41-.52-.59-.81-1.47-2.52-.63-5.75,1.89-7.22,2.51-1.47,5.75-.63,7.22,1.89,1.18,2.01.87,4.48-.59,6.14Z"/>
          <path class="cls-2" d="M27.85,53.69h-.44v-.77c0-.31-.06-.61-.18-.88-.12-.28-.28-.53-.5-.75h-.01c-.45-.46-1.03-.68-1.62-.68s-1.18.23-1.63.68c-.43.43-.68,1.02-.68,1.63v.77h-.56c-.1,0-.18.08-.18.18v3.8c0,.1.08.18.18.18h5.62c.1,0,.18-.08.18-.18v-3.8c0-.1-.08-.18-.18-.18ZM23.69,52.9c0-.37.15-.73.41-.99.28-.28.64-.42,1-.42s.72.14,1,.41c.26.26.41.62.41,1v.78h-2.82v-.78ZM23.89,56.21s0,.01,0,.02c0,.01,0,.03-.02.04,0,0,0,.01-.01.02,0,0,0,0,0,0-.06.09-.18.11-.27.06l-.21-.15v.25c0,.11-.09.19-.19.19-.05,0-.1-.02-.14-.06-.04-.03-.06-.08-.06-.14v-.25l-.21.14s-.02.01-.03.01c-.07.03-.16.02-.21-.03-.01-.01-.02-.02-.03-.04,0,0-.01-.02-.01-.03-.02-.05-.02-.1,0-.15,0-.02.02-.04.04-.06.01-.01.02-.02.04-.03l.27-.18-.27-.19c-.06-.04-.1-.12-.08-.19,0-.03.01-.05.03-.08,0,0,.01-.01.02-.02,0,0,.01-.01.02-.02.06-.06.16-.07.24-.02l.21.14v-.25c0-.07.03-.13.08-.16.03-.02.07-.03.11-.03s.08.01.11.03c.05.04.09.09.09.16v.25l.21-.14c.09-.06.21-.04.27.05.06.09.04.21-.05.27l-.27.19.27.19s.01,0,.02.02c0,0,.01.01.02.02.02.02.03.04.04.06.01.03.02.06.01.1ZM25.71,56.29s0,0,0,0c-.06.09-.18.11-.27.06l-.21-.15v.25c0,.11-.09.19-.19.19-.05,0-.1-.02-.14-.06,0,0,0,0-.01-.01-.03-.03-.05-.08-.05-.12v-.25l-.21.14s-.03.02-.05.02c0,0-.02,0-.03,0-.07.01-.15-.02-.19-.09-.06-.09-.04-.21.06-.27l.27-.18-.27-.19c-.07-.05-.1-.13-.08-.21,0-.02.01-.03.02-.05,0,0,0,0,0,0,0,0,0,0,0,0,0,0,0,0,0,0,0,0,.01-.01.02-.02,0,0,.01-.01.02-.02.05-.05.12-.06.18-.04.02,0,.03.01.05.02,0,0,0,0,.01,0l.21.14v-.25h0c0-.06.03-.12.09-.16.03-.02.07-.03.11-.03s.08.01.11.03c.05.04.09.09.09.16v.25l.21-.14c.07-.05.17-.04.24.02,0,0,.01.01.02.02,0,0,.01.01.02.02.01.02.02.03.03.05.01.03.01.07,0,.1,0,.02-.02.04-.03.06-.01.02-.03.04-.05.05l-.27.19.27.19s.01,0,.02.02c0,0,.01.01.02.02.01.01.02.03.03.04.02.04.03.08.02.12,0,.03-.01.05-.03.08ZM27.58,56.28c-.04.06-.12.1-.19.09-.02,0-.04,0-.05-.02,0,0-.02,0-.03-.01l-.21-.14v.25c0,.05-.02.1-.06.14,0,0,0,0-.01.01-.03.03-.08.05-.12.05s-.09-.02-.12-.05c0,0,0,0-.01-.01-.04-.04-.06-.08-.06-.14v-.25l-.21.14s-.07.03-.11.03c-.05,0-.1-.02-.14-.06,0,0-.01-.01-.02-.02,0,0,0,0,0,0s0,0,0,0c-.06-.08-.05-.2.03-.26,0,0,0,0,.01-.01l.27-.18-.27-.19c-.09-.06-.11-.18-.05-.27.06-.09.18-.11.27-.05l.21.14v-.25h0c0-.06.03-.12.09-.16.03-.02.07-.03.11-.03s.08.01.11.03c.05.04.09.09.09.16v.25l.21-.14c.09-.06.21-.04.27.05.06.09.04.21-.05.27l-.26.17.27.19c.09.06.11.18.05.27Z"/>
        </g>
      </g>
    </g>
    <rect class="cls-2" x="33.06" y="19.83" width=".53" height="4.9" rx=".27" ry=".27"/>
    <rect class="cls-2" x="33.06" y="27.6" width=".53" height="8.91" rx=".27" ry=".27"/>
  </g>
</svg>